<svg width="487" height="279" viewBox="0 0 487 279" fill="none" xmlns="http://www.w3.org/2000/svg">
<rect width="487" height="279" rx="20" fill="#458686"/>
<path d="M354.231 261.061C354.231 264.475 352.861 267.43 350.12 269.925C347.38 272.42 344.135 273.667 340.385 273.667C336.635 273.667 333.389 272.42 330.649 269.925C327.909 267.43 326.538 264.475 326.538 261.061C326.538 257.647 327.909 254.692 330.649 252.197C333.389 249.702 336.635 248.455 340.385 248.455C344.135 248.455 347.38 249.702 350.12 252.197C352.861 254.692 354.231 257.647 354.231 261.061ZM451.154 261.061C451.154 264.475 449.784 267.43 447.043 269.925C444.303 272.42 441.058 273.667 437.308 273.667C433.558 273.667 430.313 272.42 427.572 269.925C424.832 267.43 423.462 264.475 423.462 261.061C423.462 257.647 424.832 254.692 427.572 252.197C430.313 249.702 433.558 248.455 437.308 248.455C441.058 248.455 444.303 249.702 447.043 252.197C449.784 254.692 451.154 257.647 451.154 261.061ZM465 153.909V204.334C465 205.909 464.405 207.305 463.215 208.519C462.025 209.734 460.565 210.44 458.834 210.637L345.901 222.652C346.839 226.591 347.308 228.889 347.308 229.546C347.308 230.596 346.442 232.697 344.712 235.849H444.231C446.106 235.849 447.728 236.473 449.099 237.72C450.469 238.968 451.154 240.445 451.154 242.152C451.154 243.859 450.469 245.336 449.099 246.584C447.728 247.831 446.106 248.455 444.231 248.455H333.462C331.587 248.455 329.964 247.831 328.594 246.584C327.224 245.336 326.538 243.859 326.538 242.152C326.538 241.43 326.827 240.396 327.404 239.05C327.981 237.704 328.558 236.522 329.135 235.504C329.712 234.486 330.487 233.173 331.46 231.565C332.434 229.956 332.993 228.988 333.137 228.659L313.99 147.606H291.923C290.048 147.606 288.425 146.982 287.055 145.735C285.685 144.487 285 143.01 285 141.303C285 139.596 285.685 138.119 287.055 136.871C288.425 135.624 290.048 135 291.923 135H319.615C320.769 135 321.797 135.213 322.698 135.64C323.6 136.067 324.303 136.576 324.808 137.167C325.313 137.758 325.781 138.562 326.214 139.58C326.647 140.597 326.935 141.451 327.079 142.14C327.224 142.83 327.422 143.798 327.674 145.045C327.927 146.293 328.089 147.147 328.161 147.606H458.077C459.952 147.606 461.575 148.23 462.945 149.477C464.315 150.725 465 152.202 465 153.909Z" fill="white" fill-opacity="0.36"/>
</svg>
